#VRML V2.0 utf8
# JUSHUO AFA07-S15 FFC connector, built from the manufacturer's
# drawing by hardware/tools/gen_connector_model.py
Transform {
  children [
    Shape {
      appearance Appearance { material Material {
        diffuseColor 0.850 0.820 0.720
        specularColor 0.15 0.15 0.15  shininess 0.3
      } }
      geometry IndexedFaceSet {
        solid TRUE
        coord Coordinate { point [ -3.946850 0.974409 0.000000, -3.946850 0.974409 0.984252, 3.946850 0.974409 0.984252, 3.946850 0.974409 0.000000, -3.946850 0.265748 0.000000, -3.946850 0.265748 0.984252, -3.946850 0.974409 0.984252, -3.946850 0.974409 0.000000, 3.946850 0.974409 0.000000, 3.946850 0.974409 0.984252, 3.946850 0.265748 0.984252, 3.946850 0.265748 0.000000, -3.946850 0.974409 0.000000, 3.946850 0.974409 0.000000, 3.946850 0.265748 0.000000, 4.192913 0.265748 0.000000, 4.192913 -0.127953 0.000000, 4.330709 -0.718504 0.000000, 4.330709 -1.112205 0.000000, -4.330709 -1.112205 0.000000, -4.330709 -0.718504 0.000000, -4.192913 -0.127953 0.000000, -4.192913 0.265748 0.000000, -3.946850 0.265748 0.000000, -3.946850 0.974409 0.984252, 3.946850 0.974409 0.984252, 3.946850 0.265748 0.984252, 4.192913 0.265748 0.984252, 4.192913 -0.127953 0.984252, 4.330709 -0.718504 0.984252, 4.330709 -1.112205 0.984252, -4.330709 -1.112205 0.984252, -4.330709 -0.718504 0.984252, -4.192913 -0.127953 0.984252, -4.192913 0.265748 0.984252, -3.946850 0.265748 0.984252, -4.192913 0.265748 0.000000, -4.192913 0.265748 0.984252, -3.946850 0.265748 0.984252, -3.946850 0.265748 0.000000, 3.946850 0.265748 0.000000, 3.946850 0.265748 0.984252, 4.192913 0.265748 0.984252, 4.192913 0.265748 0.000000, 4.192913 0.265748 0.000000, 4.192913 0.265748 0.984252, 4.192913 -0.127953 0.984252, 4.192913 -0.127953 0.000000, 4.192913 -0.127953 0.000000, 4.192913 -0.127953 0.984252, 4.330709 -0.718504 0.984252, 4.330709 -0.718504 0.000000, 4.330709 -0.718504 0.000000, 4.330709 -0.718504 0.984252, 4.330709 -1.112205 0.984252, 4.330709 -1.112205 0.000000, 4.330709 -1.112205 0.000000, 4.330709 -1.112205 0.984252, -4.330709 -1.112205 0.984252, -4.330709 -1.112205 0.000000, 3.228346 -1.112205 0.236220, -3.228346 -1.112205 0.236220, -3.228346 -1.112205 0.374016, 3.228346 -1.112205 0.374016, -4.330709 -1.112205 0.000000, -4.330709 -1.112205 0.984252, -4.330709 -0.718504 0.984252, -4.330709 -0.718504 0.000000, -4.330709 -0.718504 0.000000, -4.330709 -0.718504 0.984252, -4.192913 -0.127953 0.984252, -4.192913 -0.127953 0.000000, -4.192913 -0.127953 0.000000, -4.192913 -0.127953 0.984252, -4.192913 0.265748 0.984252, -4.192913 0.265748 0.000000, -3.228346 -1.112205 0.236220, -3.228346 -0.127953 0.236220, 3.228346 -1.112205 0.236220, 3.228346 -0.127953 0.236220, 3.228346 -1.112205 0.374016, 3.228346 -0.127953 0.374016, 3.228346 -1.112205 0.236220, 3.228346 -0.127953 0.236220, -3.228346 -1.112205 0.374016, -3.228346 -0.127953 0.374016, 3.228346 -1.112205 0.374016, 3.228346 -0.127953 0.374016, -3.228346 -1.112205 0.374016, -3.228346 -0.127953 0.374016, -3.228346 -1.112205 0.236220, -3.228346 -0.127953 0.236220, -3.228346 -0.127953 0.236220, 3.228346 -0.127953 0.236220, -3.228346 -0.127953 0.374016, 3.228346 -0.127953 0.374016 ] }
        coordIndex [ 3 0 1 -1, 3 1 2 -1, 7 4 5 -1, 7 5 6 -1, 11 8 9 -1, 11 9 10 -1, 14 15 16 -1, 14 16 17 -1, 14 17 18 -1, 23 18 19 -1, 23 19 20 -1, 23 20 21 -1, 23 14 18 -1, 22 23 21 -1, 12 13 14 -1, 12 14 23 -1, 26 28 27 -1, 26 29 28 -1, 26 30 29 -1, 35 31 30 -1, 35 32 31 -1, 35 33 32 -1, 35 30 26 -1, 34 33 35 -1, 24 26 25 -1, 24 35 26 -1, 39 36 37 -1, 39 37 38 -1, 43 40 41 -1, 43 41 42 -1, 47 44 45 -1, 47 45 46 -1, 51 48 49 -1, 51 49 50 -1, 55 52 53 -1, 55 53 54 -1, 63 56 57 -1, 60 56 63 -1, 58 62 63 -1, 58 63 57 -1, 59 61 62 -1, 59 62 58 -1, 59 56 60 -1, 59 60 61 -1, 67 64 65 -1, 67 65 66 -1, 71 68 69 -1, 71 69 70 -1, 75 72 73 -1, 75 73 74 -1, 79 77 76 -1, 79 76 78 -1, 80 83 82 -1, 80 81 83 -1, 87 84 85 -1, 87 86 84 -1, 88 90 91 -1, 88 91 89 -1, 95 92 93 -1, 95 94 92 -1 ]
      }
    }
    Shape {
      appearance Appearance { material Material {
        diffuseColor 0.130 0.130 0.140
        specularColor 0.15 0.15 0.15  shininess 0.3
      } }
      geometry IndexedFaceSet {
        solid TRUE
        coord Coordinate { point [ -4.330709 -1.368110 0.000000, -4.330709 -1.368110 0.787402, -3.946850 -1.368110 0.787402, -3.946850 -1.368110 0.000000, -4.330709 -1.761811 0.000000, -4.330709 -1.761811 0.787402, -4.330709 -1.368110 0.787402, -4.330709 -1.368110 0.000000, -3.946850 -1.368110 0.000000, -3.946850 -1.368110 0.787402, -3.946850 -1.112205 0.787402, -3.946850 -1.112205 0.000000, -4.330709 -1.368110 0.000000, -3.946850 -1.368110 0.000000, -3.946850 -1.112205 0.000000, 3.946850 -1.112205 0.000000, 3.946850 -1.368110 0.000000, 4.330709 -1.368110 0.000000, 4.330709 -1.761811 0.000000, -4.330709 -1.761811 0.000000, -4.330709 -1.368110 0.787402, -3.946850 -1.368110 0.787402, -3.946850 -1.112205 0.787402, 3.946850 -1.112205 0.787402, 3.946850 -1.368110 0.787402, 4.330709 -1.368110 0.787402, 4.330709 -1.761811 0.787402, -4.330709 -1.761811 0.787402, 4.330709 -1.761811 0.000000, 4.330709 -1.761811 0.787402, -4.330709 -1.761811 0.787402, -4.330709 -1.761811 0.000000, -3.228346 -1.761811 0.236220, -3.228346 -1.761811 0.374016, 3.228346 -1.761811 0.374016, 3.228346 -1.761811 0.236220, -3.946850 -1.112205 0.000000, -3.946850 -1.112205 0.787402, 3.946850 -1.112205 0.787402, 3.946850 -1.112205 0.000000, -3.228346 -1.112205 0.374016, 3.228346 -1.112205 0.374016, -3.228346 -1.112205 0.236220, 3.228346 -1.112205 0.236220, 3.946850 -1.112205 0.000000, 3.946850 -1.112205 0.787402, 3.946850 -1.368110 0.787402, 3.946850 -1.368110 0.000000, 3.946850 -1.368110 0.000000, 3.946850 -1.368110 0.787402, 4.330709 -1.368110 0.787402, 4.330709 -1.368110 0.000000, 4.330709 -1.368110 0.000000, 4.330709 -1.368110 0.787402, 4.330709 -1.761811 0.787402, 4.330709 -1.761811 0.000000, -3.228346 -1.761811 0.374016, -3.228346 -1.112205 0.374016, -3.228346 -1.761811 0.236220, -3.228346 -1.112205 0.236220, -3.228346 -1.761811 0.236220, -3.228346 -1.112205 0.236220, 3.228346 -1.761811 0.236220, 3.228346 -1.112205 0.236220, 3.228346 -1.761811 0.374016, 3.228346 -1.112205 0.374016, 3.228346 -1.761811 0.236220, 3.228346 -1.112205 0.236220, -3.228346 -1.761811 0.374016, -3.228346 -1.112205 0.374016, 3.228346 -1.761811 0.374016, 3.228346 -1.112205 0.374016 ] }
        coordIndex [ 3 0 1 -1, 3 1 2 -1, 7 4 5 -1, 7 5 6 -1, 11 8 9 -1, 11 9 10 -1, 16 17 18 -1, 13 18 19 -1, 13 16 18 -1, 14 15 16 -1, 14 16 13 -1, 12 13 19 -1, 24 26 25 -1, 21 27 26 -1, 21 26 24 -1, 22 24 23 -1, 22 21 24 -1, 20 27 21 -1, 34 28 29 -1, 35 28 34 -1, 30 33 34 -1, 30 34 29 -1, 31 32 33 -1, 31 33 30 -1, 31 28 35 -1, 31 35 32 -1, 40 36 37 -1, 42 36 40 -1, 38 41 40 -1, 38 40 37 -1, 39 43 41 -1, 39 41 38 -1, 39 36 42 -1, 39 42 43 -1, 47 44 45 -1, 47 45 46 -1, 51 48 49 -1, 51 49 50 -1, 55 52 53 -1, 55 53 54 -1, 56 58 59 -1, 56 59 57 -1, 63 61 60 -1, 63 60 62 -1, 64 67 66 -1, 64 65 67 -1, 71 68 69 -1, 71 70 68 -1 ]
      }
    }
    Shape {
      appearance Appearance { material Material {
        diffuseColor 0.750 0.760 0.780
        specularColor 0.15 0.15 0.15  shininess 0.3
      } }
      geometry IndexedFaceSet {
        solid TRUE
        coord Coordinate { point [ -2.874016 0.974409 0.000000, -2.874016 0.974409 0.059055, -2.874016 1.683071 0.000000, -2.874016 1.683071 0.059055, -2.637795 0.974409 0.000000, -2.637795 0.974409 0.059055, -2.637795 1.683071 0.000000, -2.637795 1.683071 0.059055, -2.874016 0.974409 0.000000, -2.637795 0.974409 0.000000, -2.874016 0.974409 0.059055, -2.637795 0.974409 0.059055, -2.874016 1.683071 0.000000, -2.637795 1.683071 0.000000, -2.874016 1.683071 0.059055, -2.637795 1.683071 0.059055, -2.874016 0.974409 0.000000, -2.874016 1.683071 0.000000, -2.637795 0.974409 0.000000, -2.637795 1.683071 0.000000, -2.874016 0.974409 0.059055, -2.874016 1.683071 0.059055, -2.637795 0.974409 0.059055, -2.637795 1.683071 0.059055, -2.480315 0.974409 0.000000, -2.480315 0.974409 0.059055, -2.480315 1.683071 0.000000, -2.480315 1.683071 0.059055, -2.244094 0.974409 0.000000, -2.244094 0.974409 0.059055, -2.244094 1.683071 0.000000, -2.244094 1.683071 0.059055, -2.480315 0.974409 0.000000, -2.244094 0.974409 0.000000, -2.480315 0.974409 0.059055, -2.244094 0.974409 0.059055, -2.480315 1.683071 0.000000, -2.244094 1.683071 0.000000, -2.480315 1.683071 0.059055, -2.244094 1.683071 0.059055, -2.480315 0.974409 0.000000, -2.480315 1.683071 0.000000, -2.244094 0.974409 0.000000, -2.244094 1.683071 0.000000, -2.480315 0.974409 0.059055, -2.480315 1.683071 0.059055, -2.244094 0.974409 0.059055, -2.244094 1.683071 0.059055, -2.086614 0.974409 0.000000, -2.086614 0.974409 0.059055, -2.086614 1.683071 0.000000, -2.086614 1.683071 0.059055, -1.850394 0.974409 0.000000, -1.850394 0.974409 0.059055, -1.850394 1.683071 0.000000, -1.850394 1.683071 0.059055, -2.086614 0.974409 0.000000, -1.850394 0.974409 0.000000, -2.086614 0.974409 0.059055, -1.850394 0.974409 0.059055, -2.086614 1.683071 0.000000, -1.850394 1.683071 0.000000, -2.086614 1.683071 0.059055, -1.850394 1.683071 0.059055, -2.086614 0.974409 0.000000, -2.086614 1.683071 0.000000, -1.850394 0.974409 0.000000, -1.850394 1.683071 0.000000, -2.086614 0.974409 0.059055, -2.086614 1.683071 0.059055, -1.850394 0.974409 0.059055, -1.850394 1.683071 0.059055, -1.692913 0.974409 0.000000, -1.692913 0.974409 0.059055, -1.692913 1.683071 0.000000, -1.692913 1.683071 0.059055, -1.456693 0.974409 0.000000, -1.456693 0.974409 0.059055, -1.456693 1.683071 0.000000, -1.456693 1.683071 0.059055, -1.692913 0.974409 0.000000, -1.456693 0.974409 0.000000, -1.692913 0.974409 0.059055, -1.456693 0.974409 0.059055, -1.692913 1.683071 0.000000, -1.456693 1.683071 0.000000, -1.692913 1.683071 0.059055, -1.456693 1.683071 0.059055, -1.692913 0.974409 0.000000, -1.692913 1.683071 0.000000, -1.456693 0.974409 0.000000, -1.456693 1.683071 0.000000, -1.692913 0.974409 0.059055, -1.692913 1.683071 0.059055, -1.456693 0.974409 0.059055, -1.456693 1.683071 0.059055, -1.299213 0.974409 0.000000, -1.299213 0.974409 0.059055, -1.299213 1.683071 0.000000, -1.299213 1.683071 0.059055, -1.062992 0.974409 0.000000, -1.062992 0.974409 0.059055, -1.062992 1.683071 0.000000, -1.062992 1.683071 0.059055, -1.299213 0.974409 0.000000, -1.062992 0.974409 0.000000, -1.299213 0.974409 0.059055, -1.062992 0.974409 0.059055, -1.299213 1.683071 0.000000, -1.062992 1.683071 0.000000, -1.299213 1.683071 0.059055, -1.062992 1.683071 0.059055, -1.299213 0.974409 0.000000, -1.299213 1.683071 0.000000, -1.062992 0.974409 0.000000, -1.062992 1.683071 0.000000, -1.299213 0.974409 0.059055, -1.299213 1.683071 0.059055, -1.062992 0.974409 0.059055, -1.062992 1.683071 0.059055, -0.905512 0.974409 0.000000, -0.905512 0.974409 0.059055, -0.905512 1.683071 0.000000, -0.905512 1.683071 0.059055, -0.669291 0.974409 0.000000, -0.669291 0.974409 0.059055, -0.669291 1.683071 0.000000, -0.669291 1.683071 0.059055, -0.905512 0.974409 0.000000, -0.669291 0.974409 0.000000, -0.905512 0.974409 0.059055, -0.669291 0.974409 0.059055, -0.905512 1.683071 0.000000, -0.669291 1.683071 0.000000, -0.905512 1.683071 0.059055, -0.669291 1.683071 0.059055, -0.905512 0.974409 0.000000, -0.905512 1.683071 0.000000, -0.669291 0.974409 0.000000, -0.669291 1.683071 0.000000, -0.905512 0.974409 0.059055, -0.905512 1.683071 0.059055, -0.669291 0.974409 0.059055, -0.669291 1.683071 0.059055, -0.511811 0.974409 0.000000, -0.511811 0.974409 0.059055, -0.511811 1.683071 0.000000, -0.511811 1.683071 0.059055, -0.275591 0.974409 0.000000, -0.275591 0.974409 0.059055, -0.275591 1.683071 0.000000, -0.275591 1.683071 0.059055, -0.511811 0.974409 0.000000, -0.275591 0.974409 0.000000, -0.511811 0.974409 0.059055, -0.275591 0.974409 0.059055, -0.511811 1.683071 0.000000, -0.275591 1.683071 0.000000, -0.511811 1.683071 0.059055, -0.275591 1.683071 0.059055, -0.511811 0.974409 0.000000, -0.511811 1.683071 0.000000, -0.275591 0.974409 0.000000, -0.275591 1.683071 0.000000, -0.511811 0.974409 0.059055, -0.511811 1.683071 0.059055, -0.275591 0.974409 0.059055, -0.275591 1.683071 0.059055, -0.118110 0.974409 0.000000, -0.118110 0.974409 0.059055, -0.118110 1.683071 0.000000, -0.118110 1.683071 0.059055, 0.118110 0.974409 0.000000, 0.118110 0.974409 0.059055, 0.118110 1.683071 0.000000, 0.118110 1.683071 0.059055, -0.118110 0.974409 0.000000, 0.118110 0.974409 0.000000, -0.118110 0.974409 0.059055, 0.118110 0.974409 0.059055, -0.118110 1.683071 0.000000, 0.118110 1.683071 0.000000, -0.118110 1.683071 0.059055, 0.118110 1.683071 0.059055, -0.118110 0.974409 0.000000, -0.118110 1.683071 0.000000, 0.118110 0.974409 0.000000, 0.118110 1.683071 0.000000, -0.118110 0.974409 0.059055, -0.118110 1.683071 0.059055, 0.118110 0.974409 0.059055, 0.118110 1.683071 0.059055, 0.275591 0.974409 0.000000, 0.275591 0.974409 0.059055, 0.275591 1.683071 0.000000, 0.275591 1.683071 0.059055, 0.511811 0.974409 0.000000, 0.511811 0.974409 0.059055, 0.511811 1.683071 0.000000, 0.511811 1.683071 0.059055, 0.275591 0.974409 0.000000, 0.511811 0.974409 0.000000, 0.275591 0.974409 0.059055, 0.511811 0.974409 0.059055, 0.275591 1.683071 0.000000, 0.511811 1.683071 0.000000, 0.275591 1.683071 0.059055, 0.511811 1.683071 0.059055, 0.275591 0.974409 0.000000, 0.275591 1.683071 0.000000, 0.511811 0.974409 0.000000, 0.511811 1.683071 0.000000, 0.275591 0.974409 0.059055, 0.275591 1.683071 0.059055, 0.511811 0.974409 0.059055, 0.511811 1.683071 0.059055, 0.669291 0.974409 0.000000, 0.669291 0.974409 0.059055, 0.669291 1.683071 0.000000, 0.669291 1.683071 0.059055, 0.905512 0.974409 0.000000, 0.905512 0.974409 0.059055, 0.905512 1.683071 0.000000, 0.905512 1.683071 0.059055, 0.669291 0.974409 0.000000, 0.905512 0.974409 0.000000, 0.669291 0.974409 0.059055, 0.905512 0.974409 0.059055, 0.669291 1.683071 0.000000, 0.905512 1.683071 0.000000, 0.669291 1.683071 0.059055, 0.905512 1.683071 0.059055, 0.669291 0.974409 0.000000, 0.669291 1.683071 0.000000, 0.905512 0.974409 0.000000, 0.905512 1.683071 0.000000, 0.669291 0.974409 0.059055, 0.669291 1.683071 0.059055, 0.905512 0.974409 0.059055, 0.905512 1.683071 0.059055, 1.062992 0.974409 0.000000, 1.062992 0.974409 0.059055, 1.062992 1.683071 0.000000, 1.062992 1.683071 0.059055, 1.299213 0.974409 0.000000, 1.299213 0.974409 0.059055, 1.299213 1.683071 0.000000, 1.299213 1.683071 0.059055, 1.062992 0.974409 0.000000, 1.299213 0.974409 0.000000, 1.062992 0.974409 0.059055, 1.299213 0.974409 0.059055, 1.062992 1.683071 0.000000, 1.299213 1.683071 0.000000, 1.062992 1.683071 0.059055, 1.299213 1.683071 0.059055, 1.062992 0.974409 0.000000, 1.062992 1.683071 0.000000, 1.299213 0.974409 0.000000, 1.299213 1.683071 0.000000, 1.062992 0.974409 0.059055, 1.062992 1.683071 0.059055, 1.299213 0.974409 0.059055, 1.299213 1.683071 0.059055, 1.456693 0.974409 0.000000, 1.456693 0.974409 0.059055, 1.456693 1.683071 0.000000, 1.456693 1.683071 0.059055, 1.692913 0.974409 0.000000, 1.692913 0.974409 0.059055, 1.692913 1.683071 0.000000, 1.692913 1.683071 0.059055, 1.456693 0.974409 0.000000, 1.692913 0.974409 0.000000, 1.456693 0.974409 0.059055, 1.692913 0.974409 0.059055, 1.456693 1.683071 0.000000, 1.692913 1.683071 0.000000, 1.456693 1.683071 0.059055, 1.692913 1.683071 0.059055, 1.456693 0.974409 0.000000, 1.456693 1.683071 0.000000, 1.692913 0.974409 0.000000, 1.692913 1.683071 0.000000, 1.456693 0.974409 0.059055, 1.456693 1.683071 0.059055, 1.692913 0.974409 0.059055, 1.692913 1.683071 0.059055, 1.850394 0.974409 0.000000, 1.850394 0.974409 0.059055, 1.850394 1.683071 0.000000, 1.850394 1.683071 0.059055, 2.086614 0.974409 0.000000, 2.086614 0.974409 0.059055, 2.086614 1.683071 0.000000, 2.086614 1.683071 0.059055, 1.850394 0.974409 0.000000, 2.086614 0.974409 0.000000, 1.850394 0.974409 0.059055, 2.086614 0.974409 0.059055, 1.850394 1.683071 0.000000, 2.086614 1.683071 0.000000, 1.850394 1.683071 0.059055, 2.086614 1.683071 0.059055, 1.850394 0.974409 0.000000, 1.850394 1.683071 0.000000, 2.086614 0.974409 0.000000, 2.086614 1.683071 0.000000, 1.850394 0.974409 0.059055, 1.850394 1.683071 0.059055, 2.086614 0.974409 0.059055, 2.086614 1.683071 0.059055, 2.244094 0.974409 0.000000, 2.244094 0.974409 0.059055, 2.244094 1.683071 0.000000, 2.244094 1.683071 0.059055, 2.480315 0.974409 0.000000, 2.480315 0.974409 0.059055, 2.480315 1.683071 0.000000, 2.480315 1.683071 0.059055, 2.244094 0.974409 0.000000, 2.480315 0.974409 0.000000, 2.244094 0.974409 0.059055, 2.480315 0.974409 0.059055, 2.244094 1.683071 0.000000, 2.480315 1.683071 0.000000, 2.244094 1.683071 0.059055, 2.480315 1.683071 0.059055, 2.244094 0.974409 0.000000, 2.244094 1.683071 0.000000, 2.480315 0.974409 0.000000, 2.480315 1.683071 0.000000, 2.244094 0.974409 0.059055, 2.244094 1.683071 0.059055, 2.480315 0.974409 0.059055, 2.480315 1.683071 0.059055, 2.637795 0.974409 0.000000, 2.637795 0.974409 0.059055, 2.637795 1.683071 0.000000, 2.637795 1.683071 0.059055, 2.874016 0.974409 0.000000, 2.874016 0.974409 0.059055, 2.874016 1.683071 0.000000, 2.874016 1.683071 0.059055, 2.637795 0.974409 0.000000, 2.874016 0.974409 0.000000, 2.637795 0.974409 0.059055, 2.874016 0.974409 0.059055, 2.637795 1.683071 0.000000, 2.874016 1.683071 0.000000, 2.637795 1.683071 0.059055, 2.874016 1.683071 0.059055, 2.637795 0.974409 0.000000, 2.637795 1.683071 0.000000, 2.874016 0.974409 0.000000, 2.874016 1.683071 0.000000, 2.637795 0.974409 0.059055, 2.637795 1.683071 0.059055, 2.874016 0.974409 0.059055, 2.874016 1.683071 0.059055 ] }
        coordIndex [ 1 2 0 -1, 1 3 2 -1, 5 4 6 -1, 5 6 7 -1, 11 8 9 -1, 11 10 8 -1, 15 13 12 -1, 15 12 14 -1, 19 16 17 -1, 19 18 16 -1, 23 21 20 -1, 23 20 22 -1, 25 26 24 -1, 25 27 26 -1, 29 28 30 -1, 29 30 31 -1, 35 32 33 -1, 35 34 32 -1, 39 37 36 -1, 39 36 38 -1, 43 40 41 -1, 43 42 40 -1, 47 45 44 -1, 47 44 46 -1, 49 50 48 -1, 49 51 50 -1, 53 52 54 -1, 53 54 55 -1, 59 56 57 -1, 59 58 56 -1, 63 61 60 -1, 63 60 62 -1, 67 64 65 -1, 67 66 64 -1, 71 69 68 -1, 71 68 70 -1, 73 74 72 -1, 73 75 74 -1, 77 76 78 -1, 77 78 79 -1, 83 80 81 -1, 83 82 80 -1, 87 85 84 -1, 87 84 86 -1, 91 88 89 -1, 91 90 88 -1, 95 93 92 -1, 95 92 94 -1, 97 98 96 -1, 97 99 98 -1, 101 100 102 -1, 101 102 103 -1, 107 104 105 -1, 107 106 104 -1, 111 109 108 -1, 111 108 110 -1, 115 112 113 -1, 115 114 112 -1, 119 117 116 -1, 119 116 118 -1, 121 122 120 -1, 121 123 122 -1, 125 124 126 -1, 125 126 127 -1, 131 128 129 -1, 131 130 128 -1, 135 133 132 -1, 135 132 134 -1, 139 136 137 -1, 139 138 136 -1, 143 141 140 -1, 143 140 142 -1, 145 146 144 -1, 145 147 146 -1, 149 148 150 -1, 149 150 151 -1, 155 152 153 -1, 155 154 152 -1, 159 157 156 -1, 159 156 158 -1, 163 160 161 -1, 163 162 160 -1, 167 165 164 -1, 167 164 166 -1, 169 170 168 -1, 169 171 170 -1, 173 172 174 -1, 173 174 175 -1, 179 176 177 -1, 179 178 176 -1, 183 181 180 -1, 183 180 182 -1, 187 184 185 -1, 187 186 184 -1, 191 189 188 -1, 191 188 190 -1, 193 194 192 -1, 193 195 194 -1, 197 196 198 -1, 197 198 199 -1, 203 200 201 -1, 203 202 200 -1, 207 205 204 -1, 207 204 206 -1, 211 208 209 -1, 211 210 208 -1, 215 213 212 -1, 215 212 214 -1, 217 218 216 -1, 217 219 218 -1, 221 220 222 -1, 221 222 223 -1, 227 224 225 -1, 227 226 224 -1, 231 229 228 -1, 231 228 230 -1, 235 232 233 -1, 235 234 232 -1, 239 237 236 -1, 239 236 238 -1, 241 242 240 -1, 241 243 242 -1, 245 244 246 -1, 245 246 247 -1, 251 248 249 -1, 251 250 248 -1, 255 253 252 -1, 255 252 254 -1, 259 256 257 -1, 259 258 256 -1, 263 261 260 -1, 263 260 262 -1, 265 266 264 -1, 265 267 266 -1, 269 268 270 -1, 269 270 271 -1, 275 272 273 -1, 275 274 272 -1, 279 277 276 -1, 279 276 278 -1, 283 280 281 -1, 283 282 280 -1, 287 285 284 -1, 287 284 286 -1, 289 290 288 -1, 289 291 290 -1, 293 292 294 -1, 293 294 295 -1, 299 296 297 -1, 299 298 296 -1, 303 301 300 -1, 303 300 302 -1, 307 304 305 -1, 307 306 304 -1, 311 309 308 -1, 311 308 310 -1, 313 314 312 -1, 313 315 314 -1, 317 316 318 -1, 317 318 319 -1, 323 320 321 -1, 323 322 320 -1, 327 325 324 -1, 327 324 326 -1, 331 328 329 -1, 331 330 328 -1, 335 333 332 -1, 335 332 334 -1, 337 338 336 -1, 337 339 338 -1, 341 340 342 -1, 341 342 343 -1, 347 344 345 -1, 347 346 344 -1, 351 349 348 -1, 351 348 350 -1, 355 352 353 -1, 355 354 352 -1, 359 357 356 -1, 359 356 358 -1 ]
      }
    }
    Shape {
      appearance Appearance { material Material {
        diffuseColor 0.930 0.910 0.840
        specularColor 0.15 0.15 0.15  shininess 0.3
      } }
      geometry IndexedFaceSet {
        solid TRUE
        coord Coordinate { point [ -3.149606 -10.423228 0.236220, -3.149606 -10.423228 0.354331, -3.149606 -0.187008 0.236220, -3.149606 -0.187008 0.354331, 3.149606 -10.423228 0.236220, 3.149606 -10.423228 0.354331, 3.149606 -0.187008 0.236220, 3.149606 -0.187008 0.354331, -3.149606 -10.423228 0.236220, 3.149606 -10.423228 0.236220, -3.149606 -10.423228 0.354331, 3.149606 -10.423228 0.354331, -3.149606 -0.187008 0.236220, 3.149606 -0.187008 0.236220, -3.149606 -0.187008 0.354331, 3.149606 -0.187008 0.354331, -3.149606 -10.423228 0.236220, -3.149606 -0.187008 0.236220, 3.149606 -10.423228 0.236220, 3.149606 -0.187008 0.236220, -3.149606 -10.423228 0.354331, -3.149606 -0.187008 0.354331, 3.149606 -10.423228 0.354331, 3.149606 -0.187008 0.354331 ] }
        coordIndex [ 1 2 0 -1, 1 3 2 -1, 5 4 6 -1, 5 6 7 -1, 11 8 9 -1, 11 10 8 -1, 15 13 12 -1, 15 12 14 -1, 19 16 17 -1, 19 18 16 -1, 23 21 20 -1, 23 20 22 -1 ]
      }
    }
    Shape {
      appearance Appearance { material Material {
        diffuseColor 0.160 0.290 0.550
        specularColor 0.15 0.15 0.15  shininess 0.3
      } }
      geometry IndexedFaceSet {
        solid TRUE
        coord Coordinate { point [ -3.149606 -3.730315 0.177165, -3.149606 -3.730315 0.236220, -3.149606 -0.187008 0.177165, -3.149606 -0.187008 0.236220, 3.149606 -3.730315 0.177165, 3.149606 -3.730315 0.236220, 3.149606 -0.187008 0.177165, 3.149606 -0.187008 0.236220, -3.149606 -3.730315 0.177165, 3.149606 -3.730315 0.177165, -3.149606 -3.730315 0.236220, 3.149606 -3.730315 0.236220, -3.149606 -0.187008 0.177165, 3.149606 -0.187008 0.177165, -3.149606 -0.187008 0.236220, 3.149606 -0.187008 0.236220, -3.149606 -3.730315 0.177165, -3.149606 -0.187008 0.177165, 3.149606 -3.730315 0.177165, 3.149606 -0.187008 0.177165, -3.149606 -3.730315 0.236220, -3.149606 -0.187008 0.236220, 3.149606 -3.730315 0.236220, 3.149606 -0.187008 0.236220 ] }
        coordIndex [ 1 2 0 -1, 1 3 2 -1, 5 4 6 -1, 5 6 7 -1, 11 8 9 -1, 11 10 8 -1, 15 13 12 -1, 15 12 14 -1, 19 16 17 -1, 19 18 16 -1, 23 21 20 -1, 23 20 22 -1 ]
      }
    }
    Shape {
      appearance Appearance { material Material {
        diffuseColor 0.800 0.660 0.400
        specularColor 0.15 0.15 0.15  shininess 0.3
      } }
      geometry IndexedFaceSet {
        solid TRUE
        coord Coordinate { point [ -2.893701 -2.549213 0.354331, -2.893701 -2.549213 0.370079, -2.893701 -0.187008 0.354331, -2.893701 -0.187008 0.370079, -2.618110 -2.549213 0.354331, -2.618110 -2.549213 0.370079, -2.618110 -0.187008 0.354331, -2.618110 -0.187008 0.370079, -2.893701 -2.549213 0.354331, -2.618110 -2.549213 0.354331, -2.893701 -2.549213 0.370079, -2.618110 -2.549213 0.370079, -2.893701 -0.187008 0.354331, -2.618110 -0.187008 0.354331, -2.893701 -0.187008 0.370079, -2.618110 -0.187008 0.370079, -2.893701 -2.549213 0.354331, -2.893701 -0.187008 0.354331, -2.618110 -2.549213 0.354331, -2.618110 -0.187008 0.354331, -2.893701 -2.549213 0.370079, -2.893701 -0.187008 0.370079, -2.618110 -2.549213 0.370079, -2.618110 -0.187008 0.370079, -2.500000 -2.549213 0.354331, -2.500000 -2.549213 0.370079, -2.500000 -0.187008 0.354331, -2.500000 -0.187008 0.370079, -2.224409 -2.549213 0.354331, -2.224409 -2.549213 0.370079, -2.224409 -0.187008 0.354331, -2.224409 -0.187008 0.370079, -2.500000 -2.549213 0.354331, -2.224409 -2.549213 0.354331, -2.500000 -2.549213 0.370079, -2.224409 -2.549213 0.370079, -2.500000 -0.187008 0.354331, -2.224409 -0.187008 0.354331, -2.500000 -0.187008 0.370079, -2.224409 -0.187008 0.370079, -2.500000 -2.549213 0.354331, -2.500000 -0.187008 0.354331, -2.224409 -2.549213 0.354331, -2.224409 -0.187008 0.354331, -2.500000 -2.549213 0.370079, -2.500000 -0.187008 0.370079, -2.224409 -2.549213 0.370079, -2.224409 -0.187008 0.370079, -2.106299 -2.549213 0.354331, -2.106299 -2.549213 0.370079, -2.106299 -0.187008 0.354331, -2.106299 -0.187008 0.370079, -1.830709 -2.549213 0.354331, -1.830709 -2.549213 0.370079, -1.830709 -0.187008 0.354331, -1.830709 -0.187008 0.370079, -2.106299 -2.549213 0.354331, -1.830709 -2.549213 0.354331, -2.106299 -2.549213 0.370079, -1.830709 -2.549213 0.370079, -2.106299 -0.187008 0.354331, -1.830709 -0.187008 0.354331, -2.106299 -0.187008 0.370079, -1.830709 -0.187008 0.370079, -2.106299 -2.549213 0.354331, -2.106299 -0.187008 0.354331, -1.830709 -2.549213 0.354331, -1.830709 -0.187008 0.354331, -2.106299 -2.549213 0.370079, -2.106299 -0.187008 0.370079, -1.830709 -2.549213 0.370079, -1.830709 -0.187008 0.370079, -1.712598 -2.549213 0.354331, -1.712598 -2.549213 0.370079, -1.712598 -0.187008 0.354331, -1.712598 -0.187008 0.370079, -1.437008 -2.549213 0.354331, -1.437008 -2.549213 0.370079, -1.437008 -0.187008 0.354331, -1.437008 -0.187008 0.370079, -1.712598 -2.549213 0.354331, -1.437008 -2.549213 0.354331, -1.712598 -2.549213 0.370079, -1.437008 -2.549213 0.370079, -1.712598 -0.187008 0.354331, -1.437008 -0.187008 0.354331, -1.712598 -0.187008 0.370079, -1.437008 -0.187008 0.370079, -1.712598 -2.549213 0.354331, -1.712598 -0.187008 0.354331, -1.437008 -2.549213 0.354331, -1.437008 -0.187008 0.354331, -1.712598 -2.549213 0.370079, -1.712598 -0.187008 0.370079, -1.437008 -2.549213 0.370079, -1.437008 -0.187008 0.370079, -1.318898 -2.549213 0.354331, -1.318898 -2.549213 0.370079, -1.318898 -0.187008 0.354331, -1.318898 -0.187008 0.370079, -1.043307 -2.549213 0.354331, -1.043307 -2.549213 0.370079, -1.043307 -0.187008 0.354331, -1.043307 -0.187008 0.370079, -1.318898 -2.549213 0.354331, -1.043307 -2.549213 0.354331, -1.318898 -2.549213 0.370079, -1.043307 -2.549213 0.370079, -1.318898 -0.187008 0.354331, -1.043307 -0.187008 0.354331, -1.318898 -0.187008 0.370079, -1.043307 -0.187008 0.370079, -1.318898 -2.549213 0.354331, -1.318898 -0.187008 0.354331, -1.043307 -2.549213 0.354331, -1.043307 -0.187008 0.354331, -1.318898 -2.549213 0.370079, -1.318898 -0.187008 0.370079, -1.043307 -2.549213 0.370079, -1.043307 -0.187008 0.370079, -0.925197 -2.549213 0.354331, -0.925197 -2.549213 0.370079, -0.925197 -0.187008 0.354331, -0.925197 -0.187008 0.370079, -0.649606 -2.549213 0.354331, -0.649606 -2.549213 0.370079, -0.649606 -0.187008 0.354331, -0.649606 -0.187008 0.370079, -0.925197 -2.549213 0.354331, -0.649606 -2.549213 0.354331, -0.925197 -2.549213 0.370079, -0.649606 -2.549213 0.370079, -0.925197 -0.187008 0.354331, -0.649606 -0.187008 0.354331, -0.925197 -0.187008 0.370079, -0.649606 -0.187008 0.370079, -0.925197 -2.549213 0.354331, -0.925197 -0.187008 0.354331, -0.649606 -2.549213 0.354331, -0.649606 -0.187008 0.354331, -0.925197 -2.549213 0.370079, -0.925197 -0.187008 0.370079, -0.649606 -2.549213 0.370079, -0.649606 -0.187008 0.370079, -0.531496 -2.549213 0.354331, -0.531496 -2.549213 0.370079, -0.531496 -0.187008 0.354331, -0.531496 -0.187008 0.370079, -0.255906 -2.549213 0.354331, -0.255906 -2.549213 0.370079, -0.255906 -0.187008 0.354331, -0.255906 -0.187008 0.370079, -0.531496 -2.549213 0.354331, -0.255906 -2.549213 0.354331, -0.531496 -2.549213 0.370079, -0.255906 -2.549213 0.370079, -0.531496 -0.187008 0.354331, -0.255906 -0.187008 0.354331, -0.531496 -0.187008 0.370079, -0.255906 -0.187008 0.370079, -0.531496 -2.549213 0.354331, -0.531496 -0.187008 0.354331, -0.255906 -2.549213 0.354331, -0.255906 -0.187008 0.354331, -0.531496 -2.549213 0.370079, -0.531496 -0.187008 0.370079, -0.255906 -2.549213 0.370079, -0.255906 -0.187008 0.370079, -0.137795 -2.549213 0.354331, -0.137795 -2.549213 0.370079, -0.137795 -0.187008 0.354331, -0.137795 -0.187008 0.370079, 0.137795 -2.549213 0.354331, 0.137795 -2.549213 0.370079, 0.137795 -0.187008 0.354331, 0.137795 -0.187008 0.370079, -0.137795 -2.549213 0.354331, 0.137795 -2.549213 0.354331, -0.137795 -2.549213 0.370079, 0.137795 -2.549213 0.370079, -0.137795 -0.187008 0.354331, 0.137795 -0.187008 0.354331, -0.137795 -0.187008 0.370079, 0.137795 -0.187008 0.370079, -0.137795 -2.549213 0.354331, -0.137795 -0.187008 0.354331, 0.137795 -2.549213 0.354331, 0.137795 -0.187008 0.354331, -0.137795 -2.549213 0.370079, -0.137795 -0.187008 0.370079, 0.137795 -2.549213 0.370079, 0.137795 -0.187008 0.370079, 0.255906 -2.549213 0.354331, 0.255906 -2.549213 0.370079, 0.255906 -0.187008 0.354331, 0.255906 -0.187008 0.370079, 0.531496 -2.549213 0.354331, 0.531496 -2.549213 0.370079, 0.531496 -0.187008 0.354331, 0.531496 -0.187008 0.370079, 0.255906 -2.549213 0.354331, 0.531496 -2.549213 0.354331, 0.255906 -2.549213 0.370079, 0.531496 -2.549213 0.370079, 0.255906 -0.187008 0.354331, 0.531496 -0.187008 0.354331, 0.255906 -0.187008 0.370079, 0.531496 -0.187008 0.370079, 0.255906 -2.549213 0.354331, 0.255906 -0.187008 0.354331, 0.531496 -2.549213 0.354331, 0.531496 -0.187008 0.354331, 0.255906 -2.549213 0.370079, 0.255906 -0.187008 0.370079, 0.531496 -2.549213 0.370079, 0.531496 -0.187008 0.370079, 0.649606 -2.549213 0.354331, 0.649606 -2.549213 0.370079, 0.649606 -0.187008 0.354331, 0.649606 -0.187008 0.370079, 0.925197 -2.549213 0.354331, 0.925197 -2.549213 0.370079, 0.925197 -0.187008 0.354331, 0.925197 -0.187008 0.370079, 0.649606 -2.549213 0.354331, 0.925197 -2.549213 0.354331, 0.649606 -2.549213 0.370079, 0.925197 -2.549213 0.370079, 0.649606 -0.187008 0.354331, 0.925197 -0.187008 0.354331, 0.649606 -0.187008 0.370079, 0.925197 -0.187008 0.370079, 0.649606 -2.549213 0.354331, 0.649606 -0.187008 0.354331, 0.925197 -2.549213 0.354331, 0.925197 -0.187008 0.354331, 0.649606 -2.549213 0.370079, 0.649606 -0.187008 0.370079, 0.925197 -2.549213 0.370079, 0.925197 -0.187008 0.370079, 1.043307 -2.549213 0.354331, 1.043307 -2.549213 0.370079, 1.043307 -0.187008 0.354331, 1.043307 -0.187008 0.370079, 1.318898 -2.549213 0.354331, 1.318898 -2.549213 0.370079, 1.318898 -0.187008 0.354331, 1.318898 -0.187008 0.370079, 1.043307 -2.549213 0.354331, 1.318898 -2.549213 0.354331, 1.043307 -2.549213 0.370079, 1.318898 -2.549213 0.370079, 1.043307 -0.187008 0.354331, 1.318898 -0.187008 0.354331, 1.043307 -0.187008 0.370079, 1.318898 -0.187008 0.370079, 1.043307 -2.549213 0.354331, 1.043307 -0.187008 0.354331, 1.318898 -2.549213 0.354331, 1.318898 -0.187008 0.354331, 1.043307 -2.549213 0.370079, 1.043307 -0.187008 0.370079, 1.318898 -2.549213 0.370079, 1.318898 -0.187008 0.370079, 1.437008 -2.549213 0.354331, 1.437008 -2.549213 0.370079, 1.437008 -0.187008 0.354331, 1.437008 -0.187008 0.370079, 1.712598 -2.549213 0.354331, 1.712598 -2.549213 0.370079, 1.712598 -0.187008 0.354331, 1.712598 -0.187008 0.370079, 1.437008 -2.549213 0.354331, 1.712598 -2.549213 0.354331, 1.437008 -2.549213 0.370079, 1.712598 -2.549213 0.370079, 1.437008 -0.187008 0.354331, 1.712598 -0.187008 0.354331, 1.437008 -0.187008 0.370079, 1.712598 -0.187008 0.370079, 1.437008 -2.549213 0.354331, 1.437008 -0.187008 0.354331, 1.712598 -2.549213 0.354331, 1.712598 -0.187008 0.354331, 1.437008 -2.549213 0.370079, 1.437008 -0.187008 0.370079, 1.712598 -2.549213 0.370079, 1.712598 -0.187008 0.370079, 1.830709 -2.549213 0.354331, 1.830709 -2.549213 0.370079, 1.830709 -0.187008 0.354331, 1.830709 -0.187008 0.370079, 2.106299 -2.549213 0.354331, 2.106299 -2.549213 0.370079, 2.106299 -0.187008 0.354331, 2.106299 -0.187008 0.370079, 1.830709 -2.549213 0.354331, 2.106299 -2.549213 0.354331, 1.830709 -2.549213 0.370079, 2.106299 -2.549213 0.370079, 1.830709 -0.187008 0.354331, 2.106299 -0.187008 0.354331, 1.830709 -0.187008 0.370079, 2.106299 -0.187008 0.370079, 1.830709 -2.549213 0.354331, 1.830709 -0.187008 0.354331, 2.106299 -2.549213 0.354331, 2.106299 -0.187008 0.354331, 1.830709 -2.549213 0.370079, 1.830709 -0.187008 0.370079, 2.106299 -2.549213 0.370079, 2.106299 -0.187008 0.370079, 2.224409 -2.549213 0.354331, 2.224409 -2.549213 0.370079, 2.224409 -0.187008 0.354331, 2.224409 -0.187008 0.370079, 2.500000 -2.549213 0.354331, 2.500000 -2.549213 0.370079, 2.500000 -0.187008 0.354331, 2.500000 -0.187008 0.370079, 2.224409 -2.549213 0.354331, 2.500000 -2.549213 0.354331, 2.224409 -2.549213 0.370079, 2.500000 -2.549213 0.370079, 2.224409 -0.187008 0.354331, 2.500000 -0.187008 0.354331, 2.224409 -0.187008 0.370079, 2.500000 -0.187008 0.370079, 2.224409 -2.549213 0.354331, 2.224409 -0.187008 0.354331, 2.500000 -2.549213 0.354331, 2.500000 -0.187008 0.354331, 2.224409 -2.549213 0.370079, 2.224409 -0.187008 0.370079, 2.500000 -2.549213 0.370079, 2.500000 -0.187008 0.370079, 2.618110 -2.549213 0.354331, 2.618110 -2.549213 0.370079, 2.618110 -0.187008 0.354331, 2.618110 -0.187008 0.370079, 2.893701 -2.549213 0.354331, 2.893701 -2.549213 0.370079, 2.893701 -0.187008 0.354331, 2.893701 -0.187008 0.370079, 2.618110 -2.549213 0.354331, 2.893701 -2.549213 0.354331, 2.618110 -2.549213 0.370079, 2.893701 -2.549213 0.370079, 2.618110 -0.187008 0.354331, 2.893701 -0.187008 0.354331, 2.618110 -0.187008 0.370079, 2.893701 -0.187008 0.370079, 2.618110 -2.549213 0.354331, 2.618110 -0.187008 0.354331, 2.893701 -2.549213 0.354331, 2.893701 -0.187008 0.354331, 2.618110 -2.549213 0.370079, 2.618110 -0.187008 0.370079, 2.893701 -2.549213 0.370079, 2.893701 -0.187008 0.370079 ] }
        coordIndex [ 1 2 0 -1, 1 3 2 -1, 5 4 6 -1, 5 6 7 -1, 11 8 9 -1, 11 10 8 -1, 15 13 12 -1, 15 12 14 -1, 19 16 17 -1, 19 18 16 -1, 23 21 20 -1, 23 20 22 -1, 25 26 24 -1, 25 27 26 -1, 29 28 30 -1, 29 30 31 -1, 35 32 33 -1, 35 34 32 -1, 39 37 36 -1, 39 36 38 -1, 43 40 41 -1, 43 42 40 -1, 47 45 44 -1, 47 44 46 -1, 49 50 48 -1, 49 51 50 -1, 53 52 54 -1, 53 54 55 -1, 59 56 57 -1, 59 58 56 -1, 63 61 60 -1, 63 60 62 -1, 67 64 65 -1, 67 66 64 -1, 71 69 68 -1, 71 68 70 -1, 73 74 72 -1, 73 75 74 -1, 77 76 78 -1, 77 78 79 -1, 83 80 81 -1, 83 82 80 -1, 87 85 84 -1, 87 84 86 -1, 91 88 89 -1, 91 90 88 -1, 95 93 92 -1, 95 92 94 -1, 97 98 96 -1, 97 99 98 -1, 101 100 102 -1, 101 102 103 -1, 107 104 105 -1, 107 106 104 -1, 111 109 108 -1, 111 108 110 -1, 115 112 113 -1, 115 114 112 -1, 119 117 116 -1, 119 116 118 -1, 121 122 120 -1, 121 123 122 -1, 125 124 126 -1, 125 126 127 -1, 131 128 129 -1, 131 130 128 -1, 135 133 132 -1, 135 132 134 -1, 139 136 137 -1, 139 138 136 -1, 143 141 140 -1, 143 140 142 -1, 145 146 144 -1, 145 147 146 -1, 149 148 150 -1, 149 150 151 -1, 155 152 153 -1, 155 154 152 -1, 159 157 156 -1, 159 156 158 -1, 163 160 161 -1, 163 162 160 -1, 167 165 164 -1, 167 164 166 -1, 169 170 168 -1, 169 171 170 -1, 173 172 174 -1, 173 174 175 -1, 179 176 177 -1, 179 178 176 -1, 183 181 180 -1, 183 180 182 -1, 187 184 185 -1, 187 186 184 -1, 191 189 188 -1, 191 188 190 -1, 193 194 192 -1, 193 195 194 -1, 197 196 198 -1, 197 198 199 -1, 203 200 201 -1, 203 202 200 -1, 207 205 204 -1, 207 204 206 -1, 211 208 209 -1, 211 210 208 -1, 215 213 212 -1, 215 212 214 -1, 217 218 216 -1, 217 219 218 -1, 221 220 222 -1, 221 222 223 -1, 227 224 225 -1, 227 226 224 -1, 231 229 228 -1, 231 228 230 -1, 235 232 233 -1, 235 234 232 -1, 239 237 236 -1, 239 236 238 -1, 241 242 240 -1, 241 243 242 -1, 245 244 246 -1, 245 246 247 -1, 251 248 249 -1, 251 250 248 -1, 255 253 252 -1, 255 252 254 -1, 259 256 257 -1, 259 258 256 -1, 263 261 260 -1, 263 260 262 -1, 265 266 264 -1, 265 267 266 -1, 269 268 270 -1, 269 270 271 -1, 275 272 273 -1, 275 274 272 -1, 279 277 276 -1, 279 276 278 -1, 283 280 281 -1, 283 282 280 -1, 287 285 284 -1, 287 284 286 -1, 289 290 288 -1, 289 291 290 -1, 293 292 294 -1, 293 294 295 -1, 299 296 297 -1, 299 298 296 -1, 303 301 300 -1, 303 300 302 -1, 307 304 305 -1, 307 306 304 -1, 311 309 308 -1, 311 308 310 -1, 313 314 312 -1, 313 315 314 -1, 317 316 318 -1, 317 318 319 -1, 323 320 321 -1, 323 322 320 -1, 327 325 324 -1, 327 324 326 -1, 331 328 329 -1, 331 330 328 -1, 335 333 332 -1, 335 332 334 -1, 337 338 336 -1, 337 339 338 -1, 341 340 342 -1, 341 342 343 -1, 347 344 345 -1, 347 346 344 -1, 351 349 348 -1, 351 348 350 -1, 355 352 353 -1, 355 354 352 -1, 359 357 356 -1, 359 356 358 -1 ]
      }
    }
  ]
}
